# xmcd CD database file
#
# Track frame offsets:
#	150
#	15498
#	38158
#	53856
#	67407
#	88062
#	100043
#	111605
#	126815
#	145650
#	162108
#	178002
#	196526
#	210261
#
# Disc length: 3035 seconds
#
# Revision: 2
# Processed by: cddbd v1.5.1PL2 Copyright (c) Steve Scherf et al.
# Submitted via: cdripper 1,0,32,406
#
DISCID=bc0bd90e
DTITLE=Eric Clapton - Me And Mr Johnson
DYEAR=2004
DGENRE=Blues
TTITLE0=When You Got A Good Friend
TTITLE1=Little Queen Of Spades
TTITLE2=They're Red Hot
TTITLE3=Me And The Devil Blues
TTITLE4=Taveling Riverside Blues
TTITLE5=Last Fair Deal Gone Down
TTITLE6=Stop Breakin Down Blues
TTITLE7=Milkcow S Calf Blues
TTITLE8=Kind Hearted Woman Blues
TTITLE9=Come On In My Kitchen
TTITLE10=If I Had Possession Over Judge
TTITLE11=Love In Vain
TTITLE12=32-20 Blues
TTITLE13=Hell Hound On My Trail
EXTD=by picca_one YEAR: 2004
EXTT0=
EXTT1=
EXTT2=
EXTT3=
EXTT4=
EXTT5=
EXTT6=
EXTT7=
EXTT8=
EXTT9=
EXTT10=
EXTT11=
EXTT12=
EXTT13=
PLAYORDER=
